<mxfile host="app.diagrams.net" modified="2021-03-18T01:49:35.832Z" agent="5.0 (Windows NT 10.0; Win64; x64) AppleWebKit/537.36 (KHTML, like Gecko) Chrome/89.0.4389.82 Safari/537.36" etag="GtscPiRmNhXdrFcoPGdH" version="14.4.8" type="github">
  <diagram id="C5RBs43oDa-KdzZeNtuy" name="Page-1">
    <mxGraphModel dx="1673" dy="934" grid="1" gridSize="10" guides="1" tooltips="1" connect="1" arrows="1" fold="1" page="1" pageScale="1" pageWidth="1654" pageHeight="2336" math="0" shadow="0">
      <root>
        <mxCell id="WIyWlLk6GJQsqaUBKTNV-0" />
        <mxCell id="WIyWlLk6GJQsqaUBKTNV-1" parent="WIyWlLk6GJQsqaUBKTNV-0" />
        <mxCell id="vujPfZUQDCQlnBkyloqH-32" style="edgeStyle=orthogonalEdgeStyle;rounded=0;orthogonalLoop=1;jettySize=auto;html=1;exitX=0.5;exitY=1;exitDx=0;exitDy=0;entryX=0.5;entryY=1;entryDx=0;entryDy=0;fontSize=13;" parent="WIyWlLk6GJQsqaUBKTNV-1" source="_8A0RdiCuzYZlv76x9rI-3" target="vujPfZUQDCQlnBkyloqH-31" edge="1">
          <mxGeometry relative="1" as="geometry" />
        </mxCell>
        <mxCell id="_8A0RdiCuzYZlv76x9rI-3" value="textarea(&quot;이름: &quot;+searchPerson.getName());&lt;br style=&quot;font-size: 13px;&quot;&gt;textarea(&quot;번호: &quot;+searchPerson.getPH());" style="rounded=1;whiteSpace=wrap;html=1;absoluteArcSize=1;arcSize=0;strokeWidth=2;fontSize=13;" parent="WIyWlLk6GJQsqaUBKTNV-1" vertex="1">
          <mxGeometry x="329.75" y="970" width="280.5" height="90" as="geometry" />
        </mxCell>
        <mxCell id="vujPfZUQDCQlnBkyloqH-28" value="참" style="edgeStyle=orthogonalEdgeStyle;rounded=0;orthogonalLoop=1;jettySize=auto;html=1;exitX=0.5;exitY=1;exitDx=0;exitDy=0;exitPerimeter=0;entryX=0.5;entryY=0;entryDx=0;entryDy=0;fontSize=13;" parent="WIyWlLk6GJQsqaUBKTNV-1" source="pQexZVyrvjUznnzYhCx8-12" target="_8A0RdiCuzYZlv76x9rI-3" edge="1">
          <mxGeometry relative="1" as="geometry" />
        </mxCell>
        <mxCell id="FMnMa_1F6o-aGxMzG5Tt-17" value="거짓" style="edgeStyle=orthogonalEdgeStyle;rounded=0;orthogonalLoop=1;jettySize=auto;html=1;entryX=1;entryY=0.5;entryDx=0;entryDy=0;fontSize=13;" parent="WIyWlLk6GJQsqaUBKTNV-1" source="pQexZVyrvjUznnzYhCx8-12" target="vujPfZUQDCQlnBkyloqH-31" edge="1">
          <mxGeometry relative="1" as="geometry" />
        </mxCell>
        <mxCell id="pQexZVyrvjUznnzYhCx8-12" value="savedPerson.getName().equals(searchName)" style="strokeWidth=2;html=1;shape=mxgraph.flowchart.decision;whiteSpace=wrap;fontSize=13;" parent="WIyWlLk6GJQsqaUBKTNV-1" vertex="1">
          <mxGeometry x="327.5" y="780" width="285" height="140" as="geometry" />
        </mxCell>
        <mxCell id="vujPfZUQDCQlnBkyloqH-0" value="&lt;span style=&quot;text-align: left&quot;&gt;Search( ): void&lt;/span&gt;" style="strokeWidth=2;html=1;shape=mxgraph.flowchart.terminator;whiteSpace=wrap;" parent="WIyWlLk6GJQsqaUBKTNV-1" vertex="1">
          <mxGeometry x="515" y="120" width="175" height="70" as="geometry" />
        </mxCell>
        <mxCell id="vujPfZUQDCQlnBkyloqH-1" value="return;" style="strokeWidth=2;html=1;shape=mxgraph.flowchart.terminator;whiteSpace=wrap;fontSize=13;" parent="WIyWlLk6GJQsqaUBKTNV-1" vertex="1">
          <mxGeometry x="405" y="1270" width="130" height="70" as="geometry" />
        </mxCell>
        <mxCell id="vujPfZUQDCQlnBkyloqH-34" style="edgeStyle=orthogonalEdgeStyle;rounded=0;orthogonalLoop=1;jettySize=auto;html=1;exitX=0.5;exitY=1;exitDx=0;exitDy=0;entryX=0.5;entryY=0;entryDx=0;entryDy=0;entryPerimeter=0;fontSize=13;" parent="WIyWlLk6GJQsqaUBKTNV-1" source="vujPfZUQDCQlnBkyloqH-7" target="vujPfZUQDCQlnBkyloqH-1" edge="1">
          <mxGeometry relative="1" as="geometry" />
        </mxCell>
        <mxCell id="vujPfZUQDCQlnBkyloqH-7" value="&lt;span style=&quot;font-size: 13px;&quot;&gt;textarea(&quot;검색 완료&quot;);&lt;/span&gt;" style="rounded=1;whiteSpace=wrap;html=1;absoluteArcSize=1;arcSize=0;strokeWidth=2;fontSize=13;" parent="WIyWlLk6GJQsqaUBKTNV-1" vertex="1">
          <mxGeometry x="359.5" y="1140" width="221" height="80" as="geometry" />
        </mxCell>
        <mxCell id="FMnMa_1F6o-aGxMzG5Tt-16" value="거짓" style="edgeStyle=orthogonalEdgeStyle;rounded=0;orthogonalLoop=1;jettySize=auto;html=1;exitX=1;exitY=0.5;exitDx=0;exitDy=0;exitPerimeter=0;entryX=1;entryY=0.5;entryDx=0;entryDy=0;fontSize=13;" parent="WIyWlLk6GJQsqaUBKTNV-1" source="vujPfZUQDCQlnBkyloqH-9" target="vujPfZUQDCQlnBkyloqH-7" edge="1">
          <mxGeometry x="-0.8839" relative="1" as="geometry">
            <Array as="points">
              <mxPoint x="760" y="565" />
              <mxPoint x="760" y="1180" />
            </Array>
            <mxPoint as="offset" />
          </mxGeometry>
        </mxCell>
        <mxCell id="FMnMa_1F6o-aGxMzG5Tt-18" value="참" style="edgeStyle=orthogonalEdgeStyle;rounded=0;orthogonalLoop=1;jettySize=auto;html=1;exitX=0.5;exitY=1;exitDx=0;exitDy=0;exitPerimeter=0;entryX=0.5;entryY=0;entryDx=0;entryDy=0;fontSize=13;" parent="WIyWlLk6GJQsqaUBKTNV-1" source="vujPfZUQDCQlnBkyloqH-9" target="FMnMa_1F6o-aGxMzG5Tt-14" edge="1">
          <mxGeometry relative="1" as="geometry" />
        </mxCell>
        <mxCell id="vujPfZUQDCQlnBkyloqH-9" value="i&amp;lt; v.size()" style="strokeWidth=2;html=1;shape=mxgraph.flowchart.decision;whiteSpace=wrap;fontSize=13;" parent="WIyWlLk6GJQsqaUBKTNV-1" vertex="1">
          <mxGeometry x="367" y="500" width="206" height="130" as="geometry" />
        </mxCell>
        <mxCell id="vujPfZUQDCQlnBkyloqH-20" style="edgeStyle=orthogonalEdgeStyle;rounded=0;orthogonalLoop=1;jettySize=auto;html=1;exitX=0.5;exitY=1;exitDx=0;exitDy=0;entryX=0.5;entryY=0;entryDx=0;entryDy=0;entryPerimeter=0;fontSize=13;" parent="WIyWlLk6GJQsqaUBKTNV-1" source="vujPfZUQDCQlnBkyloqH-14" target="vujPfZUQDCQlnBkyloqH-9" edge="1">
          <mxGeometry relative="1" as="geometry">
            <mxPoint x="470" y="460" as="sourcePoint" />
          </mxGeometry>
        </mxCell>
        <mxCell id="vujPfZUQDCQlnBkyloqH-14" value="int i = 0;" style="rounded=1;whiteSpace=wrap;html=1;absoluteArcSize=1;arcSize=0;strokeWidth=2;fontSize=13;" parent="WIyWlLk6GJQsqaUBKTNV-1" vertex="1">
          <mxGeometry x="425" y="430" width="90" height="40" as="geometry" />
        </mxCell>
        <mxCell id="vujPfZUQDCQlnBkyloqH-33" style="edgeStyle=orthogonalEdgeStyle;rounded=0;orthogonalLoop=1;jettySize=auto;html=1;entryX=0;entryY=0.5;entryDx=0;entryDy=0;entryPerimeter=0;fontSize=13;" parent="WIyWlLk6GJQsqaUBKTNV-1" source="vujPfZUQDCQlnBkyloqH-31" target="vujPfZUQDCQlnBkyloqH-9" edge="1">
          <mxGeometry relative="1" as="geometry">
            <Array as="points">
              <mxPoint x="165" y="565" />
            </Array>
          </mxGeometry>
        </mxCell>
        <mxCell id="vujPfZUQDCQlnBkyloqH-31" value="i++" style="rounded=1;whiteSpace=wrap;html=1;absoluteArcSize=1;arcSize=0;strokeWidth=2;fontSize=13;" parent="WIyWlLk6GJQsqaUBKTNV-1" vertex="1">
          <mxGeometry x="120" y="830" width="90" height="40" as="geometry" />
        </mxCell>
        <mxCell id="FMnMa_1F6o-aGxMzG5Tt-12" value="&lt;br&gt;&lt;br&gt;&lt;span style=&quot;color: rgb(0 , 0 , 0) ; font-family: &amp;#34;helvetica&amp;#34; ; font-size: 12px ; font-style: normal ; font-weight: 400 ; letter-spacing: normal ; text-align: center ; text-indent: 0px ; text-transform: none ; word-spacing: 0px ; background-color: rgb(248 , 249 , 250) ; display: inline ; float: none&quot;&gt;nameText.getText() 가 Name 이다&lt;/span&gt;" style="text;html=1;strokeColor=none;fillColor=none;align=center;verticalAlign=middle;whiteSpace=wrap;rounded=0;fontSize=13;" parent="WIyWlLk6GJQsqaUBKTNV-1" vertex="1">
          <mxGeometry x="890" y="300" width="250" height="170" as="geometry" />
        </mxCell>
        <mxCell id="FMnMa_1F6o-aGxMzG5Tt-19" style="edgeStyle=orthogonalEdgeStyle;rounded=0;orthogonalLoop=1;jettySize=auto;html=1;exitX=0.5;exitY=1;exitDx=0;exitDy=0;entryX=0.5;entryY=0;entryDx=0;entryDy=0;entryPerimeter=0;fontSize=13;" parent="WIyWlLk6GJQsqaUBKTNV-1" source="FMnMa_1F6o-aGxMzG5Tt-14" target="pQexZVyrvjUznnzYhCx8-12" edge="1">
          <mxGeometry relative="1" as="geometry" />
        </mxCell>
        <mxCell id="FMnMa_1F6o-aGxMzG5Tt-14" value="Person savedPerson= v.get(i);" style="rounded=1;whiteSpace=wrap;html=1;absoluteArcSize=1;arcSize=0;strokeWidth=2;fontSize=13;" parent="WIyWlLk6GJQsqaUBKTNV-1" vertex="1">
          <mxGeometry x="364.88" y="670" width="210.25" height="60" as="geometry" />
        </mxCell>
        <mxCell id="FMnMa_1F6o-aGxMzG5Tt-15" value="&lt;span style=&quot;text-align: left ; font-size: 13px&quot;&gt;void Search(Person searchPerson)&lt;/span&gt;" style="strokeWidth=2;html=1;shape=mxgraph.flowchart.terminator;whiteSpace=wrap;fontSize=13;" parent="WIyWlLk6GJQsqaUBKTNV-1" vertex="1">
          <mxGeometry x="350" y="320" width="240" height="70" as="geometry" />
        </mxCell>
      </root>
    </mxGraphModel>
  </diagram>
</mxfile>
